<svg xmlns="http://www.w3.org/2000/svg" viewBox="0 0 24.75 24.75"><defs><style>.cls-1{fill:#fff;}</style></defs><title>ico_whats</title><g id="Capa_2" data-name="Capa 2"><g id="Capa_1-2" data-name="Capa 1"><path class="cls-1" d="M12.41,5.51a6.82,6.82,0,0,0-6.8,6.79,6.91,6.91,0,0,0,1.2,3.88l-.68,2.51L8.7,18a6.8,6.8,0,0,0,10.51-5.7A6.79,6.79,0,0,0,12.41,5.51Zm4,9.72a2.11,2.11,0,0,1-1.38,1,2.89,2.89,0,0,1-1.28-.08c-.3-.1-.68-.22-1.17-.43A9.09,9.09,0,0,1,9.09,12.6a4,4,0,0,1-.83-2.11A2.3,2.3,0,0,1,9,8.78a.77.77,0,0,1,.55-.25h.39c.12,0,.29,0,.46.35S11,10.3,11,10.4a.38.38,0,0,1,0,.36,1.17,1.17,0,0,1-.2.34l-.31.36a.3.3,0,0,0-.09.41,6,6,0,0,0,1.14,1.42,5.44,5.44,0,0,0,1.64,1c.21.11.33.09.45-.05a8.28,8.28,0,0,0,.64-.8c.14-.21.28-.17.46-.1s1.2.56,1.4.66.34.16.39.24A1.75,1.75,0,0,1,16.41,15.23ZM19.6,0H5.16A5.16,5.16,0,0,0,0,5.16V19.6a5.15,5.15,0,0,0,5.16,5.15H19.6a5.14,5.14,0,0,0,5.15-5.15V5.16A5.15,5.15,0,0,0,19.6,0ZM12.41,20.49a8.18,8.18,0,0,1-3.91-1L4.16,20.63l1.17-4.24a8.17,8.17,0,1,1,7.08,4.1Z"/></g></g></svg>