<svg xmlns="http://www.w3.org/2000/svg" viewBox="0 0 24.75 24.75"><defs><style>.cls-1{fill:#fff;}</style></defs><title>ico_face</title><g id="Capa_2" data-name="Capa 2"><g id="Capa_1-2" data-name="Capa 1"><path class="cls-1" d="M23.39,0h-22A1.37,1.37,0,0,0,0,1.37v22a1.36,1.36,0,0,0,1.37,1.36H13.22V15.17H10V11.43h3.22V8.68c0-3.2,2-4.94,4.81-4.94a24.9,24.9,0,0,1,2.88.15V7.23h-2c-1.55,0-1.85.74-1.85,1.82v2.38h3.7l-.48,3.74H17.08v9.58h6.31a1.36,1.36,0,0,0,1.36-1.36v-22A1.36,1.36,0,0,0,23.39,0Z"/></g></g></svg>