<svg xmlns="http://www.w3.org/2000/svg" viewBox="0 0 24.75 24.75"><defs><style>.cls-1{fill:#fff;}</style></defs><title>ico_insta</title><g id="Capa_2" data-name="Capa 2"><g id="Capa_1-2" data-name="Capa 1"><path class="cls-1" d="M15.71,5.66c-.87,0-1.13,0-3.33,0s-2.47,0-3.34,0C6.81,5.76,5.76,6.82,5.66,9c0,.87,0,1.13,0,3.34s0,2.46,0,3.33C5.76,17.93,6.8,19,9,19.09c.87,0,1.13.05,3.34.05s2.46,0,3.33,0C18,19,19,17.93,19.09,15.71c0-.87.05-1.13.05-3.33s0-2.47-.05-3.34C19,6.82,18,5.76,15.71,5.66Zm-3.33,11a4.24,4.24,0,1,1,4.23-4.23A4.23,4.23,0,0,1,12.38,16.61ZM16.78,9a1,1,0,1,1,1-1A1,1,0,0,1,16.78,9Zm-1.65,3.42a2.75,2.75,0,1,1-2.75-2.75A2.75,2.75,0,0,1,15.13,12.38ZM19.6,0H5.16A5.16,5.16,0,0,0,0,5.16V19.6a5.15,5.15,0,0,0,5.16,5.15H19.6a5.14,5.14,0,0,0,5.15-5.15V5.16A5.15,5.15,0,0,0,19.6,0Zm1,15.78c-.14,3-1.81,4.66-4.8,4.8-.88,0-1.16.05-3.4.05s-2.52,0-3.4-.05c-3-.14-4.67-1.8-4.8-4.8,0-.88,0-1.16,0-3.4s0-2.52,0-3.4C4.31,6,6,4.31,9,4.18c.88,0,1.16,0,3.4,0s2.52,0,3.4,0c3,.13,4.67,1.8,4.8,4.79,0,.89.05,1.17.05,3.41S20.62,14.9,20.58,15.78Z"/></g></g></svg>