<svg xmlns="http://www.w3.org/2000/svg" xmlns:xlink="http://www.w3.org/1999/xlink" viewBox="0 0 60 60"><defs><style>.cls-1{fill:#fff;}.cls-2{fill:url(#linear-gradient);}</style><linearGradient id="linear-gradient" x1="39.15" y1="7.2" x2="18.25" y2="59.29" gradientUnits="userSpaceOnUse"><stop offset="0" stop-color="#4bc25a"/><stop offset="1" stop-color="#368c41"/></linearGradient></defs><title>ico_whatsapp_movil</title><g id="Capa_2" data-name="Capa 2"><g id="Objects"><path class="cls-1" d="M30,0A30,30,0,0,0,0,30c0,5.58.12,8.13,2.77,12.6L0,60l16.35-3.28C20.71,59.19,24.63,60,30,60A30,30,0,0,0,30,0Z"/><path class="cls-2" d="M30,6.25A23.75,23.75,0,0,0,9.56,42.1L7.76,52.22l10.55-1.54A23.75,23.75,0,1,0,30,6.25Z"/><path class="cls-1" d="M16.7,40.81a7.15,7.15,0,0,1-.6-2.74,1.22,1.22,0,0,1,0-.44c.05-.14.4-.41,1.05-.8s1.44-.84,2.4-1.34L21,34.7l.51-.35a3.82,3.82,0,0,1,.68-.41,1.4,1.4,0,0,1,.57-.14c.33,0,.76.3,1.28.89s1,1.18,1.55,1.77.9.9,1.19.9a1.19,1.19,0,0,0,.45-.1l.42-.17.46-.26.38-.23a20.71,20.71,0,0,0,4.63-3.43,20.89,20.89,0,0,0,3.44-4.63l.23-.39c.12-.19.2-.35.26-.46s.11-.25.17-.42a1.19,1.19,0,0,0,.1-.45,1.55,1.55,0,0,0-.56-.91,10.28,10.28,0,0,0-1.22-1,9.63,9.63,0,0,1-1.22-1.07,1.63,1.63,0,0,1-.56-1,1.41,1.41,0,0,1,.14-.58,4.33,4.33,0,0,1,.4-.67c.19-.26.3-.43.36-.52s.19-.37.4-.77L35.78,19c.24-.42.48-.84.72-1.29a12.35,12.35,0,0,1,.68-1.1,1.68,1.68,0,0,1,.45-.49,1.48,1.48,0,0,1,.43,0,7.16,7.16,0,0,1,2.75.6A4.91,4.91,0,0,1,43,19.26a8.69,8.69,0,0,1,.92,3.55,7.59,7.59,0,0,1-.06.92c-.05.32-.1.6-.14.83s-.13.52-.25.89a7.84,7.84,0,0,1-.27.8c-.06.17-.17.46-.34.9s-.26.71-.29.81a24.49,24.49,0,0,1-5.88,8.71A24.49,24.49,0,0,1,28,42.55l-.81.29-.9.34c-.16.07-.43.16-.8.28s-.67.19-.89.24-.51.09-.83.13a6.19,6.19,0,0,1-.93.07A8.53,8.53,0,0,1,19.26,43a4.91,4.91,0,0,1-2.56-2.17Z"/></g></g></svg>