<svg xmlns="http://www.w3.org/2000/svg" xmlns:xlink="http://www.w3.org/1999/xlink" viewBox="0 0 262.22 133.53"><defs><style>.cls-1{fill:#006834;}.cls-2{fill:#1a42ae;}.cls-3{fill:#006733;}.cls-4{fill:url(#linear-gradient);}.cls-5{fill:#056535;}</style><linearGradient id="linear-gradient" x1="66.91" y1="41.09" x2="136" y2="41.09" gradientUnits="userSpaceOnUse"><stop offset="0" stop-color="#359dd7"/><stop offset="1" stop-color="#1a42ae"/></linearGradient></defs><title>logo agrocalizas</title><g id="Capa_2" data-name="Capa 2"><g id="Capa_1-2" data-name="Capa 1"><path class="cls-1" d="M14.48,85.11h7.25l14.44,37.55H28.74l-2.94-7.74H10.48l-3.05,7.74H0Zm3.67,10-5,12.89H23.16Z"/><path class="cls-1" d="M59.5,94.89h6.94v23.79q0,7-2.83,10.36-3.81,4.49-11.46,4.49a20.15,20.15,0,0,1-6.87-1,12,12,0,0,1-7.53-7.81h7.68a6.38,6.38,0,0,0,2.63,1.77,10.92,10.92,0,0,0,3.81.6,10.12,10.12,0,0,0,4.51-.86A5.28,5.28,0,0,0,58.8,124a11.52,11.52,0,0,0,.7-4.75,11.39,11.39,0,0,1-3.86,2.64,12.11,12.11,0,0,1-4.56.81,12.59,12.59,0,0,1-9.45-4,14.19,14.19,0,0,1-3.85-10.21A14.21,14.21,0,0,1,41.86,97.8a12.18,12.18,0,0,1,8.83-3.63,11.87,11.87,0,0,1,4.53.88A14.54,14.54,0,0,1,59.5,98Zm-7.22,5.79a7.26,7.26,0,0,0-5.44,2.21,7.64,7.64,0,0,0-2.15,5.55,7.76,7.76,0,0,0,2.2,5.69,7.42,7.42,0,0,0,5.51,2.22,7.12,7.12,0,0,0,5.35-2.17,8.64,8.64,0,0,0,0-11.33A7.35,7.35,0,0,0,52.28,100.68Z"/><path class="cls-1" d="M69.25,94.89h6v3.5a7.47,7.47,0,0,1,2.58-3.14,6.22,6.22,0,0,1,3.53-1.08,6.48,6.48,0,0,1,2.83.72l-2.17,6a4.81,4.81,0,0,0-2-.62,3.21,3.21,0,0,0-2.72,2c-.74,1.33-1.11,3.94-1.11,7.81l0,1.36v11.23H69.25Z"/><path class="cls-1" d="M98.7,94.17a14.74,14.74,0,0,1,7.39,2,14.41,14.41,0,0,1,7.33,12.61,14.6,14.6,0,0,1-2,7.35,14.09,14.09,0,0,1-5.32,5.35,14.75,14.75,0,0,1-7.43,1.92,13.8,13.8,0,0,1-10.19-4.25A14.7,14.7,0,0,1,89.08,98,13.92,13.92,0,0,1,98.7,94.17Zm.11,6.56A7.21,7.21,0,0,0,93.4,103a8,8,0,0,0-2.16,5.78,8.17,8.17,0,0,0,2.14,5.87,7.12,7.12,0,0,0,5.41,2.25,7.23,7.23,0,0,0,5.44-2.27,9,9,0,0,0,0-11.65A7.21,7.21,0,0,0,98.81,100.73Z"/><path class="cls-2" d="M143.05,100.5l-5.8,3.19a8.59,8.59,0,0,0-7-3A8.7,8.7,0,0,0,124,103a7.93,7.93,0,0,0-2.42,6,7.69,7.69,0,0,0,2.33,5.79A8.44,8.44,0,0,0,130,117a8.88,8.88,0,0,0,7.28-3.19l5.49,3.76q-4.45,5.82-12.61,5.81-7.32,0-11.47-4.34a14.44,14.44,0,0,1,3.5-22.92,16.84,16.84,0,0,1,8.08-1.94,16.32,16.32,0,0,1,7.42,1.65A14.16,14.16,0,0,1,143.05,100.5Z"/><path class="cls-2" d="M165.28,94.89h7v27.77h-7v-2.94a13.57,13.57,0,0,1-4.1,2.8,11.42,11.42,0,0,1-4.45.85,12.37,12.37,0,0,1-9.3-4.17,14.55,14.55,0,0,1-3.93-10.38,14.94,14.94,0,0,1,3.8-10.54,12.12,12.12,0,0,1,9.23-4.11,11.7,11.7,0,0,1,4.69,1A12.93,12.93,0,0,1,165.28,98ZM158,100.61a7.07,7.07,0,0,0-5.37,2.28,9.14,9.14,0,0,0,0,11.78A7.05,7.05,0,0,0,158,117a7.19,7.19,0,0,0,5.44-2.28,8.37,8.37,0,0,0,2.16-6,8.13,8.13,0,0,0-2.16-5.87A7.25,7.25,0,0,0,158,100.61Z"/><path class="cls-2" d="M174,84.17h7v38.49h-7Z"/><path class="cls-2" d="M187.39,83.45a4.27,4.27,0,0,1,3.14,1.33A4.41,4.41,0,0,1,191.85,88a4.36,4.36,0,0,1-1.3,3.17,4.21,4.21,0,0,1-3.11,1.32,4.29,4.29,0,0,1-3.17-1.34A4.49,4.49,0,0,1,183,87.9a4.46,4.46,0,0,1,4.43-4.45Zm-3.48,11.44h7v27.77h-7Z"/><path class="cls-2" d="M194.08,94.89h21.26l-12.47,21.87h11.76v5.9H192.17l12.53-21.88H194.08Z"/><path class="cls-2" d="M235.25,94.89h7v27.77h-7v-2.94a13.66,13.66,0,0,1-4.09,2.8,11.49,11.49,0,0,1-4.45.85,12.37,12.37,0,0,1-9.31-4.17,14.54,14.54,0,0,1-3.92-10.38,14.93,14.93,0,0,1,3.79-10.54,12.12,12.12,0,0,1,9.23-4.11,11.7,11.7,0,0,1,4.69,1A12.82,12.82,0,0,1,235.25,98Zm-7.33,5.72a7.07,7.07,0,0,0-5.37,2.28,9.14,9.14,0,0,0,0,11.78A7.05,7.05,0,0,0,228,117a7.19,7.19,0,0,0,5.44-2.28,8.37,8.37,0,0,0,2.16-6,8.13,8.13,0,0,0-2.16-5.87A7.25,7.25,0,0,0,227.92,100.61Z"/><path class="cls-2" d="M261.71,98.77l-4.31,4.31q-2.64-2.6-4.78-2.6a2.93,2.93,0,0,0-1.83.5,1.47,1.47,0,0,0-.67,1.23,1.54,1.54,0,0,0,.42,1,8.24,8.24,0,0,0,2.08,1.29l2.55,1.27a15,15,0,0,1,5.54,4.06,8.45,8.45,0,0,1-1.21,11,10.4,10.4,0,0,1-7.29,2.47,11.56,11.56,0,0,1-9.69-4.74L246.8,114a9.81,9.81,0,0,0,2.87,2.31,6.36,6.36,0,0,0,2.93.88,3.49,3.49,0,0,0,2.22-.66,1.92,1.92,0,0,0,.84-1.53q0-1.61-3-3.14l-2.35-1.17q-6.74-3.4-6.73-8.5a7.35,7.35,0,0,1,2.54-5.63,9.19,9.19,0,0,1,6.49-2.34,11.29,11.29,0,0,1,9.14,4.6Z"/><path class="cls-3" d="M93.5,20.29s13.74-2.72,25.14,2.71a24,24,0,0,1,27.67,2.89s6.15,8.14,15,0c0,0,6.51-6-1.08-13.74,0,0-11-12.84-31.53-12.12C128.71,0,107.42-.15,93.5,20.29Z"/><path class="cls-4" d="M66.91,26.07s8.5,3.44,24.78-2c10.74-3.59,23.35.81,31,8.78a76.82,76.82,0,0,1,6.83,8.94s4,5.61,6.51,17.54c0,0-3.44-7.05-20.44-5.78-8.39,1.6-18.41,1.84-26.5-1.18-7.38-2.75-13-8.39-16.87-15.11-1-1.8-2-3.66-2.83-5.54C69,30.84,67.71,26.4,66.91,26.07Z"/><path class="cls-5" d="M131.63,86.11c-.84,0-1.69,0-2.52-.1a43.67,43.67,0,0,1-37.7-25.52L90,57.56l3.18.64a56.59,56.59,0,0,0,10,.89,41.68,41.68,0,0,0,8.88-.88L113,58l.63.62c.07.07,7.77,7.49,17.76,7.49,5.84,0,11.38-2.52,16.46-7.5a8.79,8.79,0,0,1,13,.7,11.1,11.1,0,0,1,3.32,7,8.39,8.39,0,0,1-2.6,6.17C161.05,73.05,149,86.11,131.63,86.11ZM95.78,61.88a40.17,40.17,0,0,0,33.39,20.88h.13c.77.06,1.55.09,2.33.09,15.91,0,27.41-12.42,27.53-12.55a5.24,5.24,0,0,0,1.72-3.87,7.94,7.94,0,0,0-2.32-4.77l-.06-.06A6.35,6.35,0,0,0,154,59.34a6.19,6.19,0,0,0-3.89,1.6c-5.73,5.6-12,8.44-18.75,8.44-9.68,0-17.17-5.88-19.38-7.82a45.86,45.86,0,0,1-8.75.78A62.59,62.59,0,0,1,95.78,61.88Z"/></g></g></svg>